<svg width="25" height="25" viewBox="0 0 25 25" fill="none" xmlns="http://www.w3.org/2000/svg">
<path d="M10.6859 15.8594C10.6542 15.9018 10.6142 15.9372 10.5683 15.9637C10.5224 15.9901 10.4716 16.0069 10.419 16.0131C10.3664 16.0193 10.3131 16.0148 10.2623 15.9997C10.2115 15.9847 10.1644 15.9595 10.1236 15.9256L8.54121 14.6108L6.69922 16.7969H15.3301L12.9685 12.8116L10.6859 15.8594Z" fill="#5B4F4F"/>
<path d="M9.375 11.3281C9.59074 11.3281 9.76562 11.1532 9.76562 10.9375C9.76562 10.7218 9.59074 10.5469 9.375 10.5469C9.15926 10.5469 8.98438 10.7218 8.98438 10.9375C8.98438 11.1532 9.15926 11.3281 9.375 11.3281Z" fill="#5B4F4F"/>
<path d="M20.3125 5.85938H21.875V16.7969H20.3125V5.85938Z" fill="#5B4F4F"/>
<path d="M22.6562 17.1875C22.6562 17.2911 22.6151 17.3905 22.5418 17.4637C22.4686 17.537 22.3692 17.5781 22.2656 17.5781H20.3125V19.1406H23.4375V8.20312H22.6562V17.1875Z" fill="#5B4F4F"/>
<path d="M20.3125 19.9219H21.0938V21.4844H20.3125V19.9219Z" fill="#5B4F4F"/>
<path d="M8.74209 13.7621L10.3069 15.062L12.6937 11.875C12.7322 11.8236 12.7828 11.7824 12.841 11.7552C12.8992 11.728 12.9633 11.7156 13.0274 11.7191C13.0916 11.7225 13.1539 11.7418 13.2088 11.7751C13.2638 11.8084 13.3097 11.8547 13.3424 11.91L15.625 15.7621V8.19589H6.25V16.1177L8.19375 13.8108C8.26021 13.7319 8.35515 13.6825 8.45788 13.6734C8.5606 13.6643 8.66277 13.6961 8.74209 13.7621V13.7621ZM9.375 9.76562C9.60677 9.76562 9.83334 9.83435 10.0261 9.96311C10.2188 10.0919 10.369 10.2749 10.4577 10.489C10.5464 10.7032 10.5696 10.9388 10.5244 11.1661C10.4791 11.3934 10.3675 11.6022 10.2036 11.7661C10.0398 11.93 9.83094 12.0416 9.60362 12.0869C9.3763 12.1321 9.14068 12.1089 8.92654 12.0202C8.71241 11.9315 8.52939 11.7813 8.40062 11.5886C8.27185 11.3958 8.20312 11.1693 8.20312 10.9375C8.20347 10.6268 8.32705 10.3289 8.54674 10.1092C8.76644 9.88954 9.06431 9.76597 9.375 9.76562Z" fill="#5B4F4F"/>
<path d="M20.3125 3.51562H21.0938V5.07812H20.3125V3.51562Z" fill="#5B4F4F"/>
<path d="M2.34375 3.51562V5.07812H1.17188C1.06827 5.07812 0.968918 5.11928 0.895661 5.19254C0.822405 5.26579 0.78125 5.36515 0.78125 5.46875C0.78125 5.57235 0.822405 5.67171 0.895661 5.74496C0.968918 5.81822 1.06827 5.85938 1.17188 5.85938H2.34375V7.42188H1.17188C1.06827 7.42188 0.968918 7.46303 0.895661 7.53629C0.822405 7.60954 0.78125 7.7089 0.78125 7.8125C0.78125 7.9161 0.822405 8.01546 0.895661 8.08871C0.968918 8.16197 1.06827 8.20312 1.17188 8.20312H2.34375V9.76562H1.17188C1.06827 9.76562 0.968918 9.80678 0.895661 9.88004C0.822405 9.95329 0.78125 10.0526 0.78125 10.1562C0.78125 10.2599 0.822405 10.3592 0.895661 10.4325C0.968918 10.5057 1.06827 10.5469 1.17188 10.5469H2.34375V12.1094H1.17188C1.06827 12.1094 0.968918 12.1505 0.895661 12.2238C0.822405 12.297 0.78125 12.3964 0.78125 12.5C0.78125 12.6036 0.822405 12.703 0.895661 12.7762C0.968918 12.8495 1.06827 12.8906 1.17188 12.8906H2.34375V14.4531H1.17188C1.06827 14.4531 0.968918 14.4943 0.895661 14.5675C0.822405 14.6408 0.78125 14.7401 0.78125 14.8438C0.78125 14.9474 0.822405 15.0467 0.895661 15.12C0.968918 15.1932 1.06827 15.2344 1.17188 15.2344H2.34375V16.7969H1.17188C1.06827 16.7969 0.968918 16.838 0.895661 16.9113C0.822405 16.9845 0.78125 17.0839 0.78125 17.1875C0.78125 17.2911 0.822405 17.3905 0.895661 17.4637C0.968918 17.537 1.06827 17.5781 1.17188 17.5781H2.34375V19.1406H1.17188C1.06827 19.1406 0.968918 19.1818 0.895661 19.255C0.822405 19.3283 0.78125 19.4276 0.78125 19.5312C0.78125 19.6349 0.822405 19.7342 0.895661 19.8075C0.968918 19.8807 1.06827 19.9219 1.17188 19.9219H2.34375V21.4844H19.5312V3.51562H2.34375ZM16.4062 17.1875C16.4062 17.2911 16.3651 17.3905 16.2918 17.4637C16.2186 17.537 16.1192 17.5781 16.0156 17.5781H5.85938C5.75577 17.5781 5.65642 17.537 5.58316 17.4637C5.50991 17.3905 5.46875 17.2911 5.46875 17.1875V7.80527C5.46875 7.70167 5.50991 7.60232 5.58316 7.52906C5.65642 7.4558 5.75577 7.41465 5.85938 7.41465H16.0156C16.1192 7.41465 16.2186 7.4558 16.2918 7.52906C16.3651 7.60232 16.4062 7.70167 16.4062 7.80527V17.1875Z" fill="#5B4F4F"/>
</svg>
