<svg width="25" height="25" viewBox="0 0 25 25" fill="none" xmlns="http://www.w3.org/2000/svg">
<path d="M24.3279 10.8738C24.3274 10.8732 24.3268 10.8727 24.3262 10.8721L14.1272 0.674438C13.6924 0.239563 13.1144 0 12.4996 0C11.8848 0 11.3069 0.239372 10.8719 0.674248L0.678211 10.8667C0.674777 10.8702 0.671344 10.8738 0.66791 10.8772C-0.22482 11.775 -0.223294 13.2317 0.672297 14.1272C1.08147 14.5365 1.62187 14.7736 2.19967 14.7984C2.22313 14.8006 2.24678 14.8018 2.27063 14.8018H2.67713V22.3066C2.67713 23.7917 3.88555 25 5.37115 25H9.36135C9.76575 25 10.0938 24.6721 10.0938 24.2676V18.3838C10.0938 17.7061 10.6451 17.1549 11.3229 17.1549H13.6764C14.3542 17.1549 14.9054 17.7061 14.9054 18.3838V24.2676C14.9054 24.6721 15.2333 25 15.6379 25H19.6281C21.1137 25 22.3221 23.7917 22.3221 22.3066V14.8018H22.6991C23.3137 14.8018 23.8917 14.5624 24.3268 14.1275C25.2233 13.2305 25.2237 11.7714 24.3279 10.8738V10.8738Z" fill="#31980D"/>
</svg>
