<svg width="25" height="25" viewBox="0 0 25 25" fill="none" xmlns="http://www.w3.org/2000/svg">
<path d="M21.3389 3.66113C18.9779 1.30024 15.8389 0 12.5 0C9.16113 0 6.02212 1.30024 3.66113 3.66113C1.30024 6.02212 0 9.16113 0 12.5C0 15.8389 1.30024 18.9779 3.66113 21.3389C6.02212 23.6998 9.16113 25 12.5 25C15.8389 25 18.9779 23.6998 21.3389 21.3389C23.6998 18.9779 25 15.8389 25 12.5C25 9.16113 23.6998 6.02212 21.3389 3.66113ZM12.5 3.41797C13.9808 3.41797 15.1855 4.62271 15.1855 6.10352C15.1855 7.58433 13.9808 8.78906 12.5 8.78906C11.0192 8.78906 9.81445 7.58433 9.81445 6.10352C9.81445 4.62271 11.0192 3.41797 12.5 3.41797ZM15.918 20.5078H9.08203V19.043H10.5469V11.7188H9.08203V10.2539H14.4531V19.043H15.918V20.5078Z" fill="#5B4F4F"/>
</svg>
